<svg width="56" height="17" viewBox="0 0 56 17" fill="none" xmlns="http://www.w3.org/2000/svg">
<path d="M53.5368 14.1224C54.6384 14.1224 55.4188 13.9235 56.0002 13.4951V11.5519C55.4035 11.965 54.6843 12.2251 53.6745 12.2251C51.9762 12.2251 51.2723 10.9093 51.2723 8.82839C51.2723 6.64041 52.1292 5.52347 53.6898 5.52347C54.6078 5.52347 55.5106 5.84478 55.9849 6.15079V4.13112C55.48 3.85571 54.6078 3.6568 53.4144 3.6568C50.3696 3.6568 48.7936 5.84478 48.7936 8.90489C48.8089 12.2557 50.3543 14.1224 53.5368 14.1224ZM38.6494 13.2349V11.2918C37.9149 11.7967 36.6603 12.2404 35.5128 12.2404C33.7685 12.2404 33.1106 11.4142 33.0035 9.73112H38.7565V8.47647C38.7565 4.97265 37.2111 3.6568 34.8395 3.6568C31.9324 3.6568 30.5554 5.87538 30.5554 8.92019C30.5554 12.424 32.2843 14.1224 35.3139 14.1224C36.8286 14.1224 37.9456 13.7093 38.6494 13.2349ZM16.8155 3.84041V7.81855H13.633V3.84041H11.2461V13.9235H13.633V9.71582H16.8155V13.9235H19.2024V3.84041H16.8155ZM29.9587 12.0262H28.9029V3.84041H21.9565V4.69724C21.9565 7.16063 21.8035 10.3431 20.9619 12.0262H20.1969V16.2186H22.4002V13.9235H27.7401V16.2186H29.9434V12.0262H29.9587ZM46.2537 13.9235H48.9619L45.1368 8.49177L48.5029 3.84041H46.1007L42.7346 8.49177V3.84041H40.3477V13.9235H42.7346V8.96609L46.2537 13.9235ZM34.7783 5.52347C35.9565 5.52347 36.3237 6.5027 36.3237 7.77265V7.97155H33.0035C33.0647 6.365 33.6461 5.52347 34.7783 5.52347ZM26.516 12.0262H23.1499C23.8078 10.5114 23.9915 7.75735 23.9915 6.01308V5.70707H26.516V12.0262Z" fill="black"/>
<path d="M9.25683 13.9235H6.82405V1.88197H5.73771C3.74864 1.88197 2.7082 2.8765 2.7082 4.36066C2.7082 6.04372 3.42732 6.82404 4.91148 7.81858L6.13552 8.64481L2.61639 13.9235H0L3.16721 9.21093C1.34645 7.91038 0.321312 6.64044 0.321312 4.49836C0.321312 1.82077 2.18798 0 5.72241 0H9.24153V13.9235H9.25683Z" fill="#FC3F1D"/>
</svg>
